PathFileType	4	(X/Y/Z)	SUBJ59_1_walk_RCNL2025.trc
DataRate	CameraRate	NumFrames	NumMarkers	Units	OrigDataRate	OrigDataStartFrame	OrigNumFrames
100	100	12	25	mm	100	44	345
Frame#	Time	R_Shoulder			L_Shoulder			C7			J_Notch			R_Elbow			L_Elbow			R_Wrist			L_Wrist			R_Asis			L_Asis			Sacral			Thoracic			Sternum			R_Thigh_Lateral			R_Knee_Lateral			R_Shank_Lateral			R_Ankle_Lateral			R_Heel			R_Toe			L_Thigh_Lateral			L_Knee_Lateral			L_Shank_Lateral			L_Ankle_Lateral			L_Heel			L_Toe		
		X1	Y1	Z1	X2	Y2	Z2	X3	Y3	Z3	X4	Y4	Z4	X5	Y5	Z5	X6	Y6	Z6	X7	Y7	Z7	X8	Y8	Z8	X9	Y9	Z9	X10	Y10	Z10	X11	Y11	Z11	X12	Y12	Z12	X13	Y13	Z13	X14	Y14	Z14	X15	Y15	Z15	X16	Y16	Z16	X17	Y17	Z17	X18	Y18	Z18	X19	Y19	Z19	X20	Y20	Z20	X21	Y21	Z21	X22	Y22	Z22	X23	Y23	Z23	X24	Y24	Z24	X25	Y25	Z25
44	0.43000000	-1705.551636	1427.960327	545.646790	-1705.355957	1497.732178	152.117355	-1801.438477	1545.663086	356.657776	-1639.399414	1451.140625	345.448212	-1770.749390	1111.033936	617.293152	-1719.642578	1164.166870	24.560820	-1728.653442	834.826691	608.573792	-1637.558716	910.474060	52.735600	-1640.208008	991.940552	432.340637	-1642.807617	986.094971	204.486221	-1860.672241	1015.015259	320.224396	-1865.907959	1332.910156	317.878418	-1584.611328	1256.859497	319.679596	-1711.342407	596.511597	518.771973	-1709.335449	500.145844	462.859711	-1706.675903	299.463959	534.931702	-1690.133789	54.393063	415.516144	-1724.117798	43.551037	367.502533	-1524.707153	39.735329	384.439209	-1711.802124	596.197571	98.139648	-1713.396729	492.347931	150.748810	-1848.598999	355.192719	94.943863	-2019.891235	211.419052	178.475739	-2057.390625	223.069580	240.654236	-1952.522339	63.053440	198.732529
45	0.44000000	-1695.022705	1428.144165	546.536560	-1696.348389	1497.612671	152.893387	-1791.319946	1546.421265	358.009552	-1629.612915	1451.295898	346.423889	-1757.525146	1111.373535	619.965576	-1713.294434	1163.887817	26.293333	-1711.297241	835.766510	611.119598	-1635.356506	908.669006	52.584752	-1631.607788	991.873169	434.263367	-1633.399048	986.844666	206.017090	-1852.014771	1014.890564	321.035828	-1856.577026	1333.897339	319.723053	-1575.349243	1256.846802	321.029083	-1705.384155	596.867615	519.364136	-1704.667358	500.499023	463.321136	-1703.612671	299.740479	535.294067	-1689.957764	54.529045	415.296753	-1723.910645	43.648556	367.191711	-1524.487915	39.438568	384.266418	-1694.824707	597.593018	98.844597	-1693.613647	494.240295	151.504074	-1829.571045	358.742767	96.163116	-1999.129639	213.096329	179.543793	-2036.732056	223.787689	241.851913	-1929.520142	65.481613	197.714630
46	0.45000000	-1684.755737	1428.456299	547.408264	-1687.429321	1497.506104	153.544601	-1781.274048	1547.162964	359.193298	-1619.866821	1451.455322	347.284943	-1744.268311	1111.857544	622.433289	-1706.984375	1163.648438	27.986931	-1693.865723	836.956818	613.650269	-1633.244446	907.024261	52.388769	-1623.081787	991.886353	436.198639	-1624.068970	987.619812	207.551361	-1843.381836	1014.856262	321.777039	-1847.302490	1334.864746	321.399506	-1566.149414	1256.855103	322.346649	-1699.067139	597.201172	519.789001	-1699.967651	500.821289	463.691101	-1700.559937	300.008240	535.552063	-1689.762207	54.680256	415.056366	-1723.726074	43.777023	366.904755	-1524.287720	39.178131	384.096252	-1678.180054	599.129761	99.736168	-1674.128418	496.302032	152.389221	-1810.359497	361.929718	97.329483	-1977.549072	213.467819	180.511002	-2015.457031	223.234726	242.738739	-1905.098389	67.138435	197.744675
47	0.46000000	-1674.734497	1428.941895	548.295593	-1678.572388	1497.434692	154.108597	-1771.313110	1547.872925	360.230896	-1610.164673	1451.619629	348.047760	-1731.009399	1112.515503	624.678040	-1700.742798	1163.460693	29.634827	-1676.411316	838.442322	616.158356	-1631.201599	905.560486	52.162514	-1614.643188	991.998657	438.097900	-1614.830200	988.420776	209.096436	-1834.746582	1014.950745	322.448303	-1838.071045	1335.791626	322.909637	-1557.025146	1256.873413	323.627167	-1692.494873	597.483459	520.060181	-1695.254028	501.096832	463.965179	-1697.613159	300.236938	535.692566	-1689.541748	54.844810	414.783752	-1723.573120	43.949242	366.648132	-1524.097168	38.947914	383.933075	-1661.863403	600.749084	100.830688	-1654.969238	498.469391	153.406418	-1790.870117	364.546265	98.451385	-1955.169067	212.542694	181.428253	-1993.556885	221.414047	243.407394	-1879.356689	68.011818	198.720200
48	0.47000000	-1664.931030	1429.613159	549.215088	-1669.749878	1497.402222	154.615677	-1761.439087	1548.544067	361.144073	-1600.518311	1451.785767	348.732086	-1717.791504	1113.349976	626.707031	-1694.609253	1163.326416	31.220484	-1658.983826	840.233215	618.631622	-1629.200073	904.287292	51.918345	-1606.308838	992.205261	439.905701	-1605.694824	989.241516	210.655060	-1826.092529	1015.180420	323.053589	-1828.873901	1336.660156	324.262329	-1547.990601	1256.883545	324.862518	-1685.776123	597.693420	520.206604	-1690.523804	501.319092	464.149139	-1694.782227	300.410675	535.718323	-1689.288940	55.019520	414.470337	-1723.454102	44.172939	366.423279	-1523.907227	38.742310	383.779510	-1645.873901	602.415161	102.122871	-1636.169067	500.694672	154.556961	-1771.028564	366.435516	99.566750	-1932.007202	210.363297	182.363861	-1971.004639	218.334091	243.985443	-1852.376953	68.132469	200.457382
49	0.48000000	-1655.307739	1430.453857	550.165588	-1660.934570	1497.396606	155.088455	-1751.646240	1549.175049	361.952057	-1590.942383	1451.947998	349.356110	-1704.668579	1114.341309	628.553467	-1688.629395	1163.241455	32.722042	-1641.626709	842.308258	621.054199	-1627.211792	903.201202	51.667352	-1598.076416	992.487000	441.576477	-1596.672485	990.074097	212.222458	-1817.413574	1015.521057	323.600342	-1819.705811	1337.456421	325.471680	-1539.053223	1256.867432	326.042084	-1679.009644	597.819641	520.263611	-1685.758179	501.491760	464.257050	-1691.994507	300.528717	535.643250	-1688.996460	55.200596	414.109833	-1723.363525	44.447731	366.224670	-1523.712280	38.558498	383.638153	-1630.208496	604.112732	103.583725	-1617.763062	502.944153	155.838303	-1750.780640	367.492920	100.728500	-1908.085815	207.002792	183.385910	-1947.758057	214.012436	244.609116	-1824.227295	67.563850	202.722626
50	0.49000000	-1645.821777	1431.425659	551.130188	-1652.102417	1497.393677	155.540817	-1741.925293	1549.765503	362.669922	-1581.447144	1452.096558	349.932587	-1691.703125	1115.455078	630.271179	-1682.843384	1163.196289	34.118557	-1624.376282	844.622803	623.408752	-1625.207581	902.289520	51.419659	-1589.908081	992.811646	443.090057	-1587.767578	990.907043	213.786469	-1808.711548	1015.925781	324.099304	-1810.565186	1338.169678	326.554199	-1530.209839	1256.811646	327.154724	-1672.270264	597.858704	520.266113	-1680.929565	501.623383	464.304657	-1689.126343	300.601349	535.485596	-1688.659912	55.385307	413.699432	-1723.290161	44.766525	366.042358	-1523.511597	38.396145	383.512604	-1614.854736	605.838379	105.166748	-1599.785400	505.192108	157.242081	-1730.109863	367.673553	101.988358	-1883.425659	202.556152	184.551468	-1923.766479	208.483246	245.399582	-1794.966309	66.389900	205.262955
51	0.50000000	-1636.428955	1432.474854	552.079468	-1643.236084	1497.359619	155.977356	-1732.268188	1550.310425	363.307404	-1572.033569	1452.216187	350.466675	-1678.957153	1116.647949	631.923523	-1677.271973	1163.173096	35.395161	-1607.260010	847.118073	625.679169	-1623.150879	901.532898	51.183969	-1581.745239	993.133057	444.452789	-1578.975220	991.721985	215.331314	-1799.990845	1016.336975	324.563660	-1801.452026	1338.792114	327.526642	-1521.445923	1256.708740	328.193451	-1665.602417	597.812744	520.243774	-1676.011841	501.720306	464.304169	-1686.051270	300.641052	535.263000	-1688.282837	55.576134	413.246857	-1723.221191	45.119389	365.866180	-1523.308960	38.255989	383.407257	-1599.788330	607.589722	106.819229	-1582.268677	507.413330	158.754837	-1709.048096	366.990417	103.386986	-1858.040771	197.130203	185.900894	-1898.978516	201.803421	246.445023	-1764.651123	64.707680	207.839172
52	0.51000000	-1627.085083	1433.537964	552.974731	-1634.326660	1497.256958	156.394318	-1722.667236	1550.797729	363.867523	-1562.694214	1452.287720	350.958099	-1666.478760	1117.870117	633.567200	-1671.908081	1163.144897	36.546173	-1590.296570	849.729645	627.852173	-1620.995605	900.899597	50.968860	-1573.537354	993.397278	445.685852	-1570.276367	992.494995	216.839706	-1791.254517	1016.699280	325.006866	-1792.366211	1339.316650	328.404633	-1512.739746	1256.554810	329.160339	-1659.020508	597.687134	520.217896	-1670.989990	501.782898	464.263062	-1682.688721	300.654175	534.990479	-1687.879883	55.781380	412.774078	-1723.143799	45.493786	365.685059	-1523.109619	38.137066	383.322845	-1584.978149	609.358948	108.492462	-1565.245850	509.577637	160.361496	-1687.668579	365.502625	104.948624	-1831.942139	190.839279	187.453415	-1873.348999	194.053848	247.790192	-1733.348022	62.624863	210.258087
53	0.52000000	-1617.751099	1434.549927	553.775879	-1625.374023	1497.050903	156.781876	-1713.116821	1551.210938	364.347687	-1553.416016	1452.291504	351.404388	-1654.290039	1119.067871	635.237427	-1666.717651	1163.078491	37.574890	-1573.496765	852.393982	629.917145	-1618.694153	900.343536	50.784285	-1565.254395	993.554077	446.813019	-1561.628906	993.202209	218.293182	-1782.503662	1016.968933	325.440430	-1783.305786	1339.735596	329.202362	-1504.064087	1256.347656	330.065430	-1652.515991	597.488281	520.200623	-1665.869385	501.807922	464.186890	-1679.035767	300.640411	534.681702	-1687.473022	56.007278	412.307373	-1723.044922	45.872700	365.484711	-1522.915161	38.032375	383.248749	-1570.399292	611.132324	110.148148	-1548.751587	511.646606	162.047913	-1666.079468	363.306580	106.674034	-1805.141846	183.804062	189.204956	-1846.846558	185.341660	249.439133	-1701.136597	60.257259	212.390121
54	0.53000000	-1608.398071	1435.453857	554.452393	-1616.385742	1496.714355	157.127472	-1703.612915	1551.532471	364.743042	-1544.183960	1452.212402	351.801727	-1642.380859	1120.188843	636.940735	-1661.646240	1162.939575	38.490658	-1556.866272	855.054352	631.865173	-1616.206848	899.812653	50.639844	-1556.884766	993.567566	447.854187	-1552.967651	993.826965	219.675049	-1773.737061	1017.117859	325.872711	-1774.266235	1340.041382	329.933258	-1495.389771	1256.085449	330.920776	-1646.067993	597.223572	520.195923	-1660.677612	501.793793	464.085205	-1675.173584	300.601257	534.353577	-1687.083618	56.251602	411.865662	-1722.916626	46.238918	365.255005	-1522.721680	37.928513	383.163177	-1556.043457	612.889648	111.761971	-1532.818970	513.574341	163.801010	-1644.424805	360.534027	108.534981	-1777.648804	176.149200	191.130615	-1819.460693	175.804794	251.366196	-1668.109131	57.727169	214.170410
55	0.54000000	-1599.009888	1436.207031	554.989685	-1607.375366	1496.228882	157.418747	-1694.150757	1551.748047	365.050140	-1534.981812	1452.041138	352.144897	-1630.714478	1121.187500	638.661255	-1656.629395	1162.700684	39.305008	-1540.408691	857.663666	633.687622	-1613.503296	899.259247	50.540791	-1548.427368	993.421448	448.823730	-1544.224976	994.363770	220.974564	-1764.952393	1017.132080	326.308502	-1765.240112	1340.227051	330.610748	-1486.688599	1255.765503	331.735565	-1639.657104	596.904602	520.202332	-1655.460327	501.743591	463.974792	-1671.242432	300.547333	534.028625	-1686.728516	56.506405	411.460663	-1722.762573	46.583027	364.999847	-1522.524048	37.812267	383.046387	-1541.924561	614.600830	113.325104	-1517.477783	515.310486	165.607834	-1622.875488	357.343445	110.481262	-1749.466919	168.000565	193.190338	-1791.202515	165.609543	253.521851	-1634.369141	55.162613	215.592178
